<?xml version="1.0" encoding="utf-8"?><svg xmlns="http://www.w3.org/2000/svg" xmlns:xlink="http://www.w3.org/1999/xlink"><symbol fill="none" viewBox="0 0 30 12" id="arrow" xmlns="http://www.w3.org/2000/svg"><path d="M23.25 1l5 5m0 0l-5 5m5-5H1.5" stroke="#6F3855" stroke-width="2" stroke-linecap="round"/></symbol><symbol fill="none" viewBox="0 0 15 24" id="arrow-left" xmlns="http://www.w3.org/2000/svg"><path d="M13 2L3 12l10 10" stroke="#352E2B" stroke-width="3" stroke-linecap="round"/></symbol><symbol fill="none" viewBox="0 0 75 75" id="arrow-top" xmlns="http://www.w3.org/2000/svg"><circle cx="37.5" cy="37.5" r="37.5" fill="#76334F"/><path d="M28 31l10-10m0 0l10 10M38 21v34.5" stroke="#fff" stroke-width="4" stroke-linecap="round"/></symbol><symbol fill="none" viewBox="0 0 30 12" id="arrow2" xmlns="http://www.w3.org/2000/svg"><path d="M23.25 1l5 5m0 0l-5 5m5-5H1.5" stroke="#6F3855" stroke-width="2" stroke-linecap="round"/></symbol><symbol fill="none" viewBox="0 0 21 21" id="clock" xmlns="http://www.w3.org/2000/svg"><g clip-path="url(#eclip0_0_468)"><path d="M21 10.5a10.5 10.5 0 11-21 0 10.5 10.5 0 0121 0zM10.5 4.594a.656.656 0 00-1.313 0v7.218a.656.656 0 00.331.57l4.594 2.625a.656.656 0 00.65-1.14L10.5 11.433V4.594z" fill="#703854"/></g><defs><clipPath id="eclip0_0_468"><path fill="#fff" d="M0 0h21v21H0z"/></clipPath></defs></symbol><symbol fill="none" viewBox="0 0 12 12" id="comment" xmlns="http://www.w3.org/2000/svg"><path d="M10.8 0H1.2C.54 0 .006.54.006 1.2L0 12l2.4-2.4h8.4c.66 0 1.2-.54 1.2-1.2V1.2c0-.66-.54-1.2-1.2-1.2z" fill="#693E5B"/></symbol><symbol fill="none" viewBox="0 0 37 36" id="consultation" xmlns="http://www.w3.org/2000/svg"><g clip-path="url(#gclip0_0_523)"><path fill-rule="evenodd" clip-rule="evenodd" d="M12.45 27.641c-1.938 0-4.541-1.01-5.862-2.668-6.331 0-6.523 8.777-6.523 8.777h24.652c.002 0 .496-8.813-6.62-8.813-1.316 1.676-3.703 2.704-5.646 2.704zM17.892 14.094c0 2.815-2.49 8.197-5.565 8.197s-5.565-5.382-5.565-8.197C6.762 11.284 9.25 9 12.327 9c3.074 0 5.565 2.284 5.565 5.094z" fill="#6D3A57"/><path d="M18.532 16c-1.11 2.224-1.885 3.844-3.506 4" stroke="#6D3A57" stroke-linecap="round"/><path fill-rule="evenodd" clip-rule="evenodd" d="M28.235.092c-4.305 0-7.8 2.606-7.8 5.828 0 2.938 2.916 5.36 6.696 5.762l-2.222 4.077 6.212-4.43c2.878-.857 4.918-2.954 4.918-5.41-.003-3.221-3.494-5.827-7.804-5.827z" fill="#6D3A57"/><ellipse rx=".632" ry=".684" transform="rotate(-17.748 72.49 -33.696) skewX(.059)" fill="#6D3A57"/></g><defs><clipPath id="gclip0_0_523"><path fill="#fff" d="M0 0h36.063v36H0z"/></clipPath></defs></symbol></svg>