<svg width="21" height="21" viewBox="0 0 21 21" fill="none" xmlns="http://www.w3.org/2000/svg">
<g clip-path="url(#clip0_0_468)">
<path d="M20.9998 10.5C20.9998 13.2848 19.8935 15.9555 17.9244 17.9246C15.9552 19.8938 13.2845 21 10.4998 21C7.71498 21 5.04427 19.8938 3.07513 17.9246C1.106 15.9555 -0.000244141 13.2848 -0.000244141 10.5C-0.000244141 7.71523 1.106 5.04451 3.07513 3.07538C5.04427 1.10625 7.71498 0 10.4998 0C13.2845 0 15.9552 1.10625 17.9244 3.07538C19.8935 5.04451 20.9998 7.71523 20.9998 10.5ZM10.4998 4.59375C10.4998 4.4197 10.4306 4.25278 10.3075 4.12971C10.1845 4.00664 10.0176 3.9375 9.84351 3.9375C9.66946 3.9375 9.50254 4.00664 9.37947 4.12971C9.2564 4.25278 9.18726 4.4197 9.18726 4.59375V11.8125C9.18729 11.9282 9.2179 12.0418 9.27599 12.1418C9.33407 12.2418 9.41756 12.3248 9.51801 12.3821L14.1118 15.0071C14.2625 15.0886 14.4391 15.1079 14.6039 15.0608C14.7687 15.0138 14.9085 14.9042 14.9936 14.7554C15.0786 14.6066 15.102 14.4305 15.0589 14.2646C15.0158 14.0988 14.9095 13.9564 14.7628 13.8679L10.4998 11.4319V4.59375Z" fill="#703854"/>
</g>
<defs>
<clipPath id="clip0_0_468">
<rect width="21" height="21" fill="white" transform="translate(-0.000244141)"/>
</clipPath>
</defs>
</svg>
