<svg width="37" height="36" viewBox="0 0 37 36" fill="none" xmlns="http://www.w3.org/2000/svg">
<g clip-path="url(#clip0_0_523)">
<path fill-rule="evenodd" clip-rule="evenodd" d="M12.4507 27.6413C10.5123 27.6413 7.90899 26.631 6.58817 24.9728C0.256773 24.9728 0.0651855 33.75 0.0651855 33.75H24.7168C24.7191 33.75 25.2127 24.9368 18.0969 24.9368C16.7806 26.613 14.3937 27.6413 12.4507 27.6413Z" fill="#6D3A57"/>
<path fill-rule="evenodd" clip-rule="evenodd" d="M17.8919 14.094C17.8919 16.9088 15.4013 22.2907 12.3269 22.2907C9.25248 22.2907 6.76184 16.9088 6.76184 14.094C6.76184 11.2838 9.25022 9 12.3269 9C15.4013 9 17.8919 11.2838 17.8919 14.094Z" fill="#6D3A57"/>
<path d="M18.5325 16C17.4224 18.2238 16.6473 19.8439 15.0264 20" stroke="#6D3A57" stroke-linecap="round"/>
<path fill-rule="evenodd" clip-rule="evenodd" d="M28.2354 0.0922852C23.9304 0.0922852 20.4344 2.69779 20.4344 5.91979C20.4344 8.85829 23.3511 11.2793 27.131 11.682L24.9086 15.759L31.1205 11.3288C33.9988 10.4715 36.0387 8.37454 36.0387 5.91979C36.0364 2.69779 32.545 0.0922852 28.2354 0.0922852Z" fill="#6D3A57"/>
<ellipse rx="0.632325" ry="0.684231" transform="matrix(0.952407 -0.304829 0.305804 0.952095 13.7217 20.4936)" fill="#6D3A57"/>
</g>
<defs>
<clipPath id="clip0_0_523">
<rect width="36.0635" height="36" fill="white"/>
</clipPath>
</defs>
</svg>
